<?xml version="1.0" encoding="UTF-8"?>
<svg width="128" height="128" viewBox="0 0 128 128" xmlns="http://www.w3.org/2000/svg">
  <defs>
    <linearGradient id="clipboardGradient" x1="0%" y1="0%" x2="100%" y2="100%">
      <stop offset="0%" style="stop-color:#4285F4;stop-opacity:1" />
      <stop offset="100%" style="stop-color:#1A73E8;stop-opacity:1" />
    </linearGradient>
    <filter id="shadow" x="-20%" y="-20%" width="140%" height="140%">
      <feDropShadow dx="2" dy="2" stdDeviation="3" flood-color="#000000" flood-opacity="0.3"/>
    </filter>
  </defs>
  
  <!-- Clipboard background -->
  <rect x="20" y="16" width="60" height="80" rx="6" ry="6" 
        fill="url(#clipboardGradient)" 
        stroke="#1A73E8" 
        stroke-width="2"
        filter="url(#shadow)"/>
  
  <!-- Clipboard clip -->
  <rect x="35" y="8" width="30" height="12" rx="4" ry="4" 
        fill="#1A73E8"/>
  
  <!-- Content lines on clipboard -->
  <rect x="28" y="30" width="44" height="3" rx="1" fill="#FFFFFF" opacity="0.9"/>
  <rect x="28" y="38" width="40" height="3" rx="1" fill="#FFFFFF" opacity="0.9"/>
  <rect x="28" y="46" width="36" height="3" rx="1" fill="#FFFFFF" opacity="0.9"/>
  <rect x="28" y="54" width="42" height="3" rx="1" fill="#FFFFFF" opacity="0.9"/>
  
  <!-- Side panel representation -->
  <rect x="88" y="24" width="20" height="56" rx="3" ry="3" 
        fill="#E8F0FE" 
        stroke="#4285F4" 
        stroke-width="1"/>
  
  <!-- Side panel content lines -->
  <rect x="92" y="30" width="12" height="2" rx="1" fill="#4285F4" opacity="0.7"/>
  <rect x="92" y="36" width="10" height="2" rx="1" fill="#4285F4" opacity="0.7"/>
  <rect x="92" y="42" width="14" height="2" rx="1" fill="#4285F4" opacity="0.7"/>
  <rect x="92" y="48" width="8" height="2" rx="1" fill="#4285F4" opacity="0.7"/>
  <rect x="92" y="54" width="11" height="2" rx="1" fill="#4285F4" opacity="0.7"/>
  
  <!-- Connection line (optional visual link) -->
  <line x1="80" y1="52" x2="88" y2="52" stroke="#4285F4" stroke-width="2" opacity="0.5"/>
  
  <!-- Small clipboard icon in corner for branding -->
  <circle cx="95" cy="70" r="3" fill="#4285F4" opacity="0.8"/>
</svg>